<?xml version="1.0" standalone="no"?>
<!DOCTYPE svg PUBLIC "-//W3C//DTD SVG 20010904//EN"
 "http://www.w3.org/TR/2001/REC-SVG-20010904/DTD/svg10.dtd">
<svg version="1.0" xmlns="http://www.w3.org/2000/svg"
 width="931.000000pt" height="931.000000pt" viewBox="0 0 931.000000 931.000000"
 preserveAspectRatio="xMidYMid meet">
<metadata>
Created by potrace 1.14, written by Peter Selinger 2001-2017
</metadata>
<g transform="translate(0.000000,931.000000) scale(0.100000,-0.100000)"
fill="#000000" stroke="none">
<path d="M4220 9289 c-30 -4 -79 -7 -107 -8 -35 -1 -53 -5 -53 -13 0 -10 -3
-9 -9 1 -5 7 -13 11 -19 7 -6 -3 -32 -9 -59 -12 -44 -4 -137 -19 -188 -29 -11
-2 -33 -6 -50 -9 -16 -3 -39 -8 -50 -10 -11 -3 -51 -12 -89 -21 -37 -8 -72
-18 -77 -21 -5 -3 -19 -7 -31 -9 -24 -5 -172 -52 -203 -65 -11 -4 -36 -14 -55
-20 -39 -14 -63 -25 -160 -68 -36 -15 -84 -37 -107 -47 -24 -10 -43 -23 -43
-28 0 -4 -4 -6 -9 -2 -5 3 -17 -2 -25 -11 -9 -8 -16 -13 -16 -9 0 7 -87 -42
-112 -63 -10 -8 -18 -11 -18 -6 0 5 -4 4 -8 -1 -4 -6 -24 -19 -44 -30 -21 -11
-38 -22 -38 -26 0 -3 -11 -11 -25 -17 -14 -7 -50 -30 -80 -52 -30 -22 -55 -38
-55 -35 0 3 -9 -3 -19 -12 -11 -10 -26 -23 -33 -28 -49 -37 -105 -81 -115 -90
-6 -5 -29 -24 -50 -42 -21 -18 -63 -55 -93 -82 -30 -28 -59 -51 -63 -51 -5 0
-6 -4 -3 -8 2 -4 -9 -17 -25 -27 -16 -11 -29 -24 -29 -30 0 -5 -16 -21 -35
-35 -19 -14 -35 -29 -35 -33 0 -5 -12 -21 -27 -36 -50 -51 -153 -175 -153
-185 0 -3 -10 -16 -23 -30 -34 -37 -40 -46 -122 -164 -41 -60 -75 -115 -75
-121 0 -6 -4 -11 -8 -11 -5 0 -15 -12 -23 -27 -7 -16 -28 -51 -46 -80 -18 -29
-33 -54 -33 -57 0 -2 -16 -32 -34 -65 -19 -34 -32 -61 -29 -61 3 0 -2 -9 -12
-20 -10 -11 -15 -20 -11 -20 3 0 -5 -18 -19 -40 -14 -22 -23 -40 -20 -40 3 0
-4 -17 -15 -37 -11 -21 -20 -41 -20 -44 0 -4 -10 -28 -22 -55 -11 -27 -21 -50
-20 -51 1 -2 -6 -19 -14 -40 -9 -20 -17 -44 -19 -52 -2 -9 -9 -29 -16 -46 -7
-16 -13 -37 -14 -47 -1 -9 -6 -25 -10 -35 -18 -41 -85 -309 -99 -398 -18 -105
-24 -154 -32 -230 -3 -33 -9 -96 -13 -140 -8 -85 -6 -477 3 -560 3 -27 8 -88
12 -135 3 -47 10 -92 15 -101 4 -9 6 -19 2 -22 -4 -5 6 -75 24 -162 2 -11 6
-31 9 -45 3 -14 7 -36 10 -50 3 -14 7 -34 9 -45 6 -30 63 -236 84 -303 5 -18
11 -36 12 -40 1 -4 6 -18 11 -32 5 -14 10 -33 11 -42 1 -10 6 -18 11 -18 5 0
7 -3 4 -6 -4 -3 6 -36 21 -72 15 -37 27 -73 26 -80 0 -15 -25 -30 -118 -72
-68 -30 -149 -79 -155 -92 -2 -5 -11 -8 -20 -8 -8 0 -12 -3 -9 -7 4 -3 -2 -12
-13 -20 -11 -8 -32 -35 -47 -60 -29 -50 -35 -116 -20 -218 15 -97 15 -101 37
-285 5 -41 12 -97 15 -124 3 -26 8 -67 11 -90 2 -22 6 -54 9 -71 2 -16 7 -57
10 -90 3 -33 7 -71 10 -84 2 -13 7 -49 10 -80 3 -31 9 -74 12 -96 3 -22 7 -53
9 -70 1 -16 4 -43 7 -60 3 -16 8 -56 12 -89 4 -32 13 -75 20 -96 7 -21 11 -41
8 -44 -4 -3 -1 -6 5 -6 7 0 12 -7 12 -15 0 -8 5 -15 10 -15 6 0 10 -6 10 -14
0 -8 3 -16 8 -18 4 -1 20 -23 37 -47 16 -24 35 -45 42 -48 7 -3 13 -10 13 -16
0 -5 21 -32 48 -60 141 -147 233 -239 282 -282 30 -27 54 -53 52 -58 -1 -5 2
-6 7 -3 5 4 13 0 18 -7 4 -8 18 -19 31 -26 12 -7 20 -16 17 -22 -4 -5 -1 -9 4
-9 11 0 30 -14 77 -57 14 -13 30 -23 35 -23 6 0 8 -4 5 -8 -3 -5 7 -15 21 -23
15 -8 39 -25 54 -39 46 -41 58 -50 69 -50 5 0 10 -4 10 -9 0 -4 19 -21 42 -37
23 -16 51 -37 62 -46 69 -57 136 -108 136 -103 0 2 21 -16 46 -40 25 -25 48
-45 51 -45 3 0 13 -8 22 -18 14 -15 40 -36 119 -97 7 -5 21 -18 30 -27 9 -10
21 -18 26 -18 5 0 28 -16 52 -35 23 -19 47 -35 53 -35 6 0 11 -5 11 -11 0 -5
4 -8 9 -5 5 4 11 2 13 -2 4 -12 155 -112 168 -112 5 0 10 -4 10 -10 0 -5 7
-10 15 -10 8 0 15 -4 15 -10 0 -5 6 -10 13 -10 12 0 23 -7 73 -49 6 -5 20 -12
32 -15 12 -4 28 -13 35 -19 16 -15 42 -31 91 -58 21 -11 44 -25 50 -30 24 -20
137 -89 146 -89 6 0 10 -4 10 -8 0 -5 12 -15 28 -23 15 -8 32 -18 39 -24 7 -5
19 -15 27 -22 7 -6 17 -9 20 -6 3 4 6 2 6 -3 0 -5 18 -20 40 -34 22 -14 40
-28 40 -32 0 -5 6 -8 13 -8 8 0 22 -9 32 -20 10 -11 24 -20 32 -20 8 0 11 -4
8 -10 -3 -5 0 -10 8 -10 7 0 22 -8 33 -17 11 -10 35 -29 54 -43 47 -32 58 -41
87 -68 13 -12 29 -23 35 -25 6 -1 20 -11 32 -22 36 -33 76 -65 81 -65 2 0 15
-10 28 -23 36 -35 86 -77 91 -77 3 0 16 -10 28 -23 41 -39 101 -87 110 -87 4
0 8 -7 8 -15 0 -8 3 -14 8 -13 4 2 16 -6 28 -17 36 -34 94 -79 122 -95 15 -8
29 -17 32 -20 7 -7 27 -11 77 -17 61 -6 99 17 216 132 17 17 34 29 39 27 4 -1
8 5 8 13 0 8 4 15 10 15 5 0 23 13 40 30 17 16 33 30 35 30 6 0 42 28 73 58
13 13 26 21 29 18 3 -2 13 3 22 12 34 32 61 52 71 52 6 0 10 3 10 8 0 4 21 20
48 37 26 16 49 32 52 35 5 5 41 30 81 55 60 37 165 111 167 117 2 5 9 8 16 8
11 0 25 9 73 50 7 5 15 10 19 10 4 0 22 11 40 25 19 14 36 25 40 25 3 -1 14 8
23 19 10 12 22 21 27 21 5 0 28 15 51 33 64 50 91 69 97 68 3 -1 14 6 24 15
53 47 88 74 100 74 6 0 12 5 12 10 0 6 6 10 13 10 8 0 24 9 37 20 13 11 26 20
30 20 4 0 17 9 30 20 13 11 28 20 35 20 6 0 20 8 31 18 23 20 92 61 117 69 9
3 17 9 17 14 0 5 7 9 15 9 8 0 15 4 15 8 0 5 16 14 35 22 19 8 35 17 35 22 0
4 7 8 15 8 8 0 15 5 15 11 0 5 4 8 9 4 5 -3 13 0 17 6 3 6 22 17 40 25 19 8
34 19 34 25 0 5 5 7 10 4 6 -3 10 -1 10 6 0 7 3 10 6 6 4 -3 13 1 21 9 8 8 19
12 24 9 5 -4 9 -1 9 5 0 6 16 18 35 26 19 8 35 19 35 25 0 5 4 8 9 4 6 -3 14
3 20 12 6 10 11 15 11 10 0 -4 23 9 50 28 28 19 50 32 50 28 0 -5 4 -3 8 2 4
6 27 24 52 40 25 16 47 33 50 36 3 4 15 9 28 13 12 4 20 12 17 17 -4 5 1 9 9
9 9 0 16 5 16 12 0 6 3 9 6 6 3 -4 14 1 23 10 10 9 32 28 49 42 18 14 44 35
59 47 16 13 32 23 36 23 5 0 6 4 3 9 -3 4 6 13 19 19 14 7 25 16 25 22 0 5 7
10 16 10 8 0 12 5 9 10 -3 5 -2 10 4 10 5 0 37 26 70 59 34 32 61 56 61 53 0
-2 9 7 21 21 26 34 79 87 79 80 0 -3 13 11 29 31 16 20 32 37 35 37 3 -1 6 1
6 4 0 2 32 36 70 75 38 38 67 70 65 70 -2 0 16 20 40 44 25 24 45 47 45 50 0
3 14 19 30 34 17 16 30 35 30 41 0 7 5 9 10 6 6 -3 10 -1 10 5 0 6 10 21 23
34 39 41 62 71 59 79 -1 4 2 7 7 7 33 0 77 129 182 530 5 19 12 42 14 50 6 22
55 202 59 220 2 8 12 42 22 75 10 33 19 65 20 70 1 6 14 55 29 110 14 55 28
108 30 118 2 9 6 21 9 25 3 5 7 19 10 33 3 13 26 98 51 189 130 464 128 454
114 510 -5 20 -62 79 -71 73 -5 -2 -8 1 -8 6 0 6 -6 11 -14 11 -8 0 -16 6 -19
13 -3 6 -22 21 -43 32 -22 11 -41 22 -44 25 -7 8 -99 51 -103 48 -2 -2 -14 4
-27 13 -14 9 -50 24 -80 35 -30 10 -58 23 -62 29 -4 5 -8 7 -8 3 0 -4 -15 -1
-34 7 -18 8 -36 11 -40 8 -3 -4 -6 -1 -6 5 0 7 -3 11 -7 11 -5 -1 -10 -1 -13
1 -3 1 -15 3 -28 6 -67 12 -108 45 -85 68 4 4 8 19 9 34 1 15 3 28 4 30 1 1 4
7 5 12 1 6 3 11 4 13 2 1 5 16 7 32 8 48 11 58 19 90 5 16 9 41 11 55 1 14 3
25 4 25 1 0 3 16 5 35 2 19 4 35 5 35 2 0 5 22 12 92 2 18 5 33 8 33 3 0 5 15
6 33 0 17 5 82 9 142 17 230 9 531 -20 750 -2 17 -7 53 -10 80 -4 28 -10 66
-15 85 -5 19 -12 52 -16 74 -6 42 -7 44 -28 126 -18 71 -65 231 -73 250 -3 8
-7 20 -8 25 -2 6 -19 53 -39 105 -20 52 -38 100 -39 105 -2 6 -8 20 -15 32 -7
12 -12 29 -12 37 0 9 -4 16 -10 16 -5 0 -10 9 -10 20 0 11 -4 20 -10 20 -5 0
-10 7 -10 15 0 14 -78 174 -90 185 -3 3 -16 28 -30 55 -14 28 -28 55 -33 60
-22 29 -87 137 -87 145 0 6 -4 10 -9 10 -5 0 -12 8 -15 18 -3 9 -16 28 -28 42
-13 14 -29 36 -36 50 -7 14 -26 41 -42 60 -17 19 -35 41 -40 48 -6 6 -8 12 -5
12 3 0 -3 8 -12 18 -10 10 -34 37 -53 61 -19 24 -54 64 -77 90 -24 25 -43 50
-43 54 0 5 -4 5 -10 2 -5 -3 -10 -1 -10 5 0 6 -38 49 -85 96 -47 47 -85 83
-85 80 0 -2 -20 15 -44 40 -25 24 -47 44 -51 44 -4 0 -20 14 -35 30 -15 17
-31 30 -35 30 -3 0 -12 6 -20 13 -42 39 -135 109 -135 100 0 -4 -5 0 -11 10
-5 9 -14 17 -19 17 -5 0 -20 9 -32 21 -32 29 -158 110 -158 101 0 -4 -4 -2 -8
3 -9 12 -61 44 -84 52 -10 3 -18 9 -18 13 0 4 -15 13 -32 20 -18 8 -40 19 -48
26 -8 7 -17 12 -20 12 -6 0 -151 67 -192 89 -16 8 -28 11 -28 6 0 -4 -4 -2 -9
5 -4 7 -18 14 -29 15 -12 1 -22 5 -22 9 0 4 -4 8 -9 8 -5 0 -22 5 -38 12 -15
6 -32 12 -38 13 -11 1 -37 11 -70 26 -30 13 -286 87 -320 92 -16 3 -37 8 -45
11 -8 3 -27 8 -42 11 -16 3 -40 8 -55 11 -16 3 -41 7 -58 9 -16 2 -39 6 -50 8
-39 9 -138 20 -280 33 -103 9 -361 11 -425 3z"/>
</g>
</svg>
